<svg width="546" height="767" viewBox="0 0 546 767" fill="none" xmlns="http://www.w3.org/2000/svg">
<path d="M521.435 0.800491H416.688C403.165 0.800491 392.202 11.7634 392.202 25.2868V476.923C392.202 476.923 408.526 607.516 261.608 607.516C158.261 607.516 135.69 542.896 131.391 504.567C129.75 489.931 118.006 476.923 103.277 476.923H24.9077C11.3843 476.923 0.421448 487.886 0.421448 501.409V515.063C0.421448 576.043 11.2015 638.893 54.126 682.207C95.1058 723.558 161.773 766.677 261.608 766.677C360.735 766.677 433.339 724.169 480.359 683.088C529.906 639.8 545.922 572.859 545.922 507.066V25.2868C545.922 11.7634 534.959 0.800491 521.435 0.800491Z" fill="#CB1C8D"/>
<mask id="mask0_5_2" style="mask-type:alpha" maskUnits="userSpaceOnUse" x="0" y="0" width="546" height="767">
<path d="M521.435 0.800491H416.688C403.165 0.800491 392.202 11.7634 392.202 25.2868V476.923C392.202 476.923 408.526 607.516 261.608 607.516C158.261 607.516 135.69 542.896 131.391 504.567C129.75 489.931 118.006 476.923 103.277 476.923H24.9077C11.3843 476.923 0.421448 487.886 0.421448 501.409V515.063C0.421448 576.043 11.2015 638.893 54.126 682.207C95.1058 723.558 161.773 766.677 261.608 766.677C360.735 766.677 433.339 724.169 480.359 683.088C529.906 639.8 545.922 572.859 545.922 507.066V25.2868C545.922 11.7634 534.959 0.800491 521.435 0.800491Z" fill="#CB1C8D"/>
</mask>
<g mask="url(#mask0_5_2)">
<g filter="url(#filter0_d_5_2)">
<path d="M392.202 164.042L566.327 3.52119V208.934L392.202 164.042Z" fill="#7F167F"/>
</g>
<g filter="url(#filter1_d_5_2)">
<path d="M231.681 863.262L242.564 536.778L228.96 603.435L76.601 727.227L231.681 863.262Z" fill="#7F167F"/>
</g>
<g filter="url(#filter2_d_5_2)">
<path d="M0.421448 476.923H131.015L124.213 719.065L0.421448 476.923Z" fill="#7F167F"/>
</g>
<g filter="url(#filter3_d_5_2)">
<path d="M407.166 708.182H209.915L298.338 804.767L407.166 708.182Z" fill="#7F167F"/>
</g>
<g filter="url(#filter4_d_5_2)">
<path d="M547.282 500.049L392.202 164.042L373.157 626.561L547.282 500.049Z" fill="#7F167F"/>
</g>
<g filter="url(#filter5_d_5_2)">
<path d="M375.878 553.102L360.914 759.875L552.723 667.372L375.878 553.102Z" fill="#7F167F"/>
</g>
</g>
<circle cx="95.6459" cy="327.284" r="62.5761" fill="url(#paint0_linear_5_2)"/>
<circle cx="169.105" cy="202.132" r="38.0898" fill="url(#paint1_linear_5_2)"/>
<circle cx="58.9165" cy="130.034" r="25.8466" fill="url(#paint2_linear_5_2)"/>
<defs>
<filter id="filter0_d_5_2" x="362.274" y="-29.1272" width="239.421" height="270.709" filterUnits="userSpaceOnUse" color-interpolation-filters="sRGB">
<feFlood flood-opacity="0" result="BackgroundImageFix"/>
<feColorMatrix in="SourceAlpha" type="matrix" values="0 0 0 0 0 0 0 0 0 0 0 0 0 0 0 0 0 0 127 0" result="hardAlpha"/>
<feOffset dx="2.7207"/>
<feGaussianBlur stdDeviation="16.3242"/>
<feComposite in2="hardAlpha" operator="out"/>
<feColorMatrix type="matrix" values="0 0 0 0 0 0 0 0 0 0 0 0 0 0 0 0 0 0 0.5 0"/>
<feBlend mode="normal" in2="BackgroundImageFix" result="effect1_dropShadow_5_2"/>
<feBlend mode="normal" in="SourceGraphic" in2="effect1_dropShadow_5_2" result="shape"/>
</filter>
<filter id="filter1_d_5_2" x="60.2768" y="523.175" width="220.377" height="380.898" filterUnits="userSpaceOnUse" color-interpolation-filters="sRGB">
<feFlood flood-opacity="0" result="BackgroundImageFix"/>
<feColorMatrix in="SourceAlpha" type="matrix" values="0 0 0 0 0 0 0 0 0 0 0 0 0 0 0 0 0 0 127 0" result="hardAlpha"/>
<feOffset dx="10.8828" dy="13.6035"/>
<feGaussianBlur stdDeviation="13.6035"/>
<feComposite in2="hardAlpha" operator="out"/>
<feColorMatrix type="matrix" values="0 0 0 0 0 0 0 0 0 0 0 0 0 0 0 0 0 0 0.35 0"/>
<feBlend mode="normal" in2="BackgroundImageFix" result="effect1_dropShadow_5_2"/>
<feBlend mode="normal" in="SourceGraphic" in2="effect1_dropShadow_5_2" result="shape"/>
</filter>
<filter id="filter2_d_5_2" x="-15.9027" y="463.319" width="185.007" height="296.556" filterUnits="userSpaceOnUse" color-interpolation-filters="sRGB">
<feFlood flood-opacity="0" result="BackgroundImageFix"/>
<feColorMatrix in="SourceAlpha" type="matrix" values="0 0 0 0 0 0 0 0 0 0 0 0 0 0 0 0 0 0 127 0" result="hardAlpha"/>
<feOffset dx="10.8828" dy="13.6035"/>
<feGaussianBlur stdDeviation="13.6035"/>
<feComposite in2="hardAlpha" operator="out"/>
<feColorMatrix type="matrix" values="0 0 0 0 0 0 0 0 0 0 0 0 0 0 0 0 0 0 0.35 0"/>
<feBlend mode="normal" in2="BackgroundImageFix" result="effect1_dropShadow_5_2"/>
<feBlend mode="normal" in="SourceGraphic" in2="effect1_dropShadow_5_2" result="shape"/>
</filter>
<filter id="filter3_d_5_2" x="179.988" y="686.416" width="246.223" height="145.557" filterUnits="userSpaceOnUse" color-interpolation-filters="sRGB">
<feFlood flood-opacity="0" result="BackgroundImageFix"/>
<feColorMatrix in="SourceAlpha" type="matrix" values="0 0 0 0 0 0 0 0 0 0 0 0 0 0 0 0 0 0 127 0" result="hardAlpha"/>
<feOffset dx="-5.4414" dy="2.7207"/>
<feGaussianBlur stdDeviation="12.2431"/>
<feComposite in2="hardAlpha" operator="out"/>
<feColorMatrix type="matrix" values="0 0 0 0 0 0 0 0 0 0 0 0 0 0 0 0 0 0 0.5 0"/>
<feBlend mode="normal" in2="BackgroundImageFix" result="effect1_dropShadow_5_2"/>
<feBlend mode="normal" in="SourceGraphic" in2="effect1_dropShadow_5_2" result="shape"/>
</filter>
<filter id="filter4_d_5_2" x="348.671" y="134.115" width="223.097" height="511.491" filterUnits="userSpaceOnUse" color-interpolation-filters="sRGB">
<feFlood flood-opacity="0" result="BackgroundImageFix"/>
<feColorMatrix in="SourceAlpha" type="matrix" values="0 0 0 0 0 0 0 0 0 0 0 0 0 0 0 0 0 0 127 0" result="hardAlpha"/>
<feOffset dy="-5.4414"/>
<feGaussianBlur stdDeviation="12.2431"/>
<feComposite in2="hardAlpha" operator="out"/>
<feColorMatrix type="matrix" values="0 0 0 0 0 0 0 0 0 0 0 0 0 0 0 0 0 0 0.5 0"/>
<feBlend mode="normal" in2="BackgroundImageFix" result="effect1_dropShadow_5_2"/>
<feBlend mode="normal" in="SourceGraphic" in2="effect1_dropShadow_5_2" result="shape"/>
</filter>
<filter id="filter5_d_5_2" x="292.897" y="495.968" width="344.168" height="359.132" filterUnits="userSpaceOnUse" color-interpolation-filters="sRGB">
<feFlood flood-opacity="0" result="BackgroundImageFix"/>
<feColorMatrix in="SourceAlpha" type="matrix" values="0 0 0 0 0 0 0 0 0 0 0 0 0 0 0 0 0 0 127 0" result="hardAlpha"/>
<feOffset dx="8.16209" dy="19.0449"/>
<feGaussianBlur stdDeviation="38.0898"/>
<feComposite in2="hardAlpha" operator="out"/>
<feColorMatrix type="matrix" values="0 0 0 0 0 0 0 0 0 0 0 0 0 0 0 0 0 0 0.5 0"/>
<feBlend mode="normal" in2="BackgroundImageFix" result="effect1_dropShadow_5_2"/>
<feBlend mode="normal" in="SourceGraphic" in2="effect1_dropShadow_5_2" result="shape"/>
</filter>
<linearGradient id="paint0_linear_5_2" x1="95.6459" y1="264.708" x2="95.6459" y2="389.86" gradientUnits="userSpaceOnUse">
<stop stop-color="#460C68"/>
<stop offset="1" stop-color="#CB1C8D"/>
</linearGradient>
<linearGradient id="paint1_linear_5_2" x1="169.105" y1="164.042" x2="169.105" y2="240.222" gradientUnits="userSpaceOnUse">
<stop stop-color="#460C68"/>
<stop offset="1" stop-color="#CB1C8D"/>
</linearGradient>
<linearGradient id="paint2_linear_5_2" x1="58.9165" y1="104.187" x2="58.9165" y2="155.88" gradientUnits="userSpaceOnUse">
<stop stop-color="#460C68"/>
<stop offset="1" stop-color="#CB1C8D"/>
</linearGradient>
</defs>
</svg>
